<svg class="logo-svg" xmlns="http://www.w3.org/2000/svg" width="841.89px" height="190px" viewBox="0 0 841.89 190" fill="#FFF"><path d="M344.83 59.104c3.552 1.767 6.95-4.65 3.394-6.582-3.556-1.766-6.95 4.657-3.394 6.582z"></path><path d="M756.094 113.03c-.408-.24-1.607-.042-2.12-.042H700.89c-9.61 0-19.544.314-28.995-1.723-5.664-1.22-11.118-3.656-15.527-7.447 3.43-4.648 6.354-9.794 8.054-15.33 1.58-5.15 2.805-11.988-1.395-16.265-3.996-4.07-10.84-3.797-15.714-1.802-2.713 1.112-5.114 3.016-7.31 4.93-2.187 1.903-4.056 4.03-5.752 6.376-1.77 2.45-3.438 4.987-4.86 7.657-1.182 2.22-2.514 4.18-4.26 6-3.644 3.798-7.508 7.742-11.752 10.84 3.254-7.738 6.68-15.405 10.423-22.918.875-1.758 1.764-3.523 2.477-5.355.79-2.03 2.06-4.887.25-6.726-.806-.82-2.004-1.02-3.1-1.138-1.487-.162-3-.182-4.493-.157-2.82.046-5.65.4-8.324 1.325-5.16 1.788-9.585 4.953-13.865 8.26-3.81 2.945-6.568 6.83-9.754 10.385-2.68 2.99-5.276 6.075-8.035 8.99-2.657 2.78-5.065 5.878-7.944 8.433-1.862 1.652-3.873 2.95-6.195 3.846-.42.16-1.902.92-1.903.083 0-1.348.25-2.742.52-4.06.55-2.685 1.536-5.224 2.568-7.753.898-2.2 1.672-4.44 2.52-6.66 1.3-3.393 2.942-6.657 4.482-9.947.63-1.347 1.26-2.694 1.877-4.048.463-1.018.927-2.037 1.366-3.066.368-.865.845-1.648 1.216-2.502.483-1.114.65-2.487-.272-3.42-.39-.397-1.686-.887-2.218-.67-1.718.697-2.79 2.322-3.735 3.856-1.17 1.914-2.16 3.914-3.194 5.9-1.175 2.25-2.604 4.346-4.052 6.428-3.518 5.06-7.417 9.883-11.487 14.5-1.757 1.993-3.548 3.942-5.438 5.81-1.896 1.842-4.01 3.875-6.4 5.055-.903.445-1.934.688-2.942.627-1.51-.045-1.902-1.264-1.848-2.602.113-2.75 1.06-5.61 1.956-8.19 1.796-5.16 4.19-10.106 6.29-15.146 1.08-2.587 2.233-5.146 3.475-7.66l.76-1.537c.376-.76 1.123-1.873 1-2.773-.24-1.762-1.665-3.435-3.627-2.558-1.727.77-2.57 2.93-3.457 4.484-1.373 2.41-2.775 4.762-4.604 6.86-1.435 1.647-2.845 3.3-4.194 5.016-2.396 3.05-4.807 6.092-7.24 9.11-3.653 4.535-7.55 9.003-12.027 12.746-.646.54-3.99 3.637-4.833 2.64-.945-2.263.332-5.216 1.1-7.356 1.554-4.328 3.6-8.45 5.354-12.695 1.654-4.003 3.836-7.935 3.455-12.4-.213-2.505-1.21-4.767-3.302-6.273-2.508-1.807-5.556-2.27-8.462-1.22-6.822 2.467-11.953 7.62-16.557 13.01.918-2.38 1.968-4.696 3.01-7.022.436-.972 1.094-1.704 1.773-2.528 1.01-1.225 2.04-2.43 3.094-3.617 2.467-2.773 4.98-5.502 7.436-8.285 2.896-3.28 5.94-6.484 8.627-9.94 2.645-3.405 5.208-7.048 7.518-10.79 2.837-4.597 6.54-10.94 3.413-16.316-1.112-1.916-2.986-3.14-5.2-3.348-2.76-.25-5.408 1.268-7.347 3.118-1.79 1.708-3.14 3.872-4.384 6.01-1.347 2.315-2.61 4.68-3.786 7.086-1.362 2.784-2.675 5.593-4.016 8.388-1.885 3.93-3.483 7.98-5.226 11.972-1.257 2.88-2.48 5.766-3.62 8.693-.448 1.146-.905 2.287-1.384 3.42-.4.943-.715 2.043-1.366 2.845-1.26 1.55-2.527 3.097-3.808 4.632-2.618 3.103-5.388 6.064-8.056 9.122-3.4 3.897-7.15 7.507-11.138 10.8-6.57 5.423-14.032 10.177-22.296 12.505-2.563.723-5.2 1.195-7.862 1.334-2.284.118-4.587-.003-6.875.026-6.02.078-12.042.13-18.062.29 3.09-2.622 5.714-5.575 8.153-8.79 3.19-4.207 5.726-8.67 7.116-13.8 1.54-5.684 1.104-11.924-3.31-16.21-3.44-3.343-8.18-4.497-12.94-3.7-3.203.51-6.08 1.75-8.11 4.373-3.548-4.168-9.558-5.715-14.766-4.2-5.16 1.5-9.76 5.562-10.35 11.092-.273 2.542-.278 5.123.226 7.638.496 2.48 1.587 4.842 2.668 7.097 1.885 3.93 4.317 7.2 7.06 10.476 1.733 2.08 3.534 4.1 5.624 5.83-14.656-.307-29.327.18-43.98-.258-5.33-.16-10.99.48-16.064-1.586-2.264-.92-4.355-2.454-5.323-4.77-1.334-3.183-.303-6.794 1.006-9.802 1.457-3.345 3.004-6.644 4.545-9.95 1.095-2.347 2.265-4.65 3.588-6.877 1.065-1.79 2.777-3.805 2.27-5.995-.467-2.008-2.116-2.646-3.784-1.408-1.838 1.366-3.254 3.426-4.71 5.178-3.037 3.653-6.314 7.087-9.37 10.72-2.75 3.27-5.66 6.345-8.624 9.42-2.676 2.78-5.272 5.636-8.055 8.31-1.958 1.88-4.22 3.96-6.914 4.688-.888.24-1.987.328-2.587-.48-.654-.872-.918-2.16-1.113-3.212-.417-2.25.046-4.245.55-6.425.535-2.32 1.106-4.615 1.872-6.873.472-1.392 1-2.765 1.48-4.153.365-1.05.724-2.1 1.132-3.134.257-.648.528-1.29.806-1.93.228-.525.417-1.285.773-1.73 1.78-2.222 3.57-4.437 5.303-6.698 4.202-5.49 8.314-11.042 12.4-16.62 2.573-3.512 5.135-7.04 7.678-10.578 3.31-4.602 6.823-9.602 8.264-15.16.656-2.53.872-5.376-.542-7.697-1.09-1.788-2.9-2.85-4.98-2.967-5.348-.3-9.1 5.606-11.59 9.433-2.66 4.11-4.623 8.547-6.807 12.913-1.944 3.883-3.85 7.74-5.445 11.785-1.667 4.228-3.366 8.46-4.84 12.76-1.03 3.01-2.118 5.972-3.388 8.893-.562 1.292-1.35 2.232-2.215 3.356-1.3 1.69-2.592 3.367-4.014 4.96-1.696 1.9-3.393 3.8-5.09 5.698-2.16 2.42-4.422 4.773-6.687 7.098-2.526 2.594-4.975 5.35-7.737 7.693-1.605 1.363-3.374 2.62-5.48 3.047-.453.092-1.035.242-1.45.023-.405-.297-.768-.723-1.056-1.13-.53-.75-.668-1.69-.783-2.58-.33-2.567.25-5.284.845-7.774.556-2.324 1.26-4.628 2.085-6.87.594-1.617 1.233-3.216 1.854-4.822.43-1.114.86-2.23 1.272-3.35.194-.53.34-1.102.65-1.565 2.97-3.716 5.858-7.492 8.727-11.287 6.183-8.18 12.246-16.415 17.94-24.946 2.47-3.692 5.22-7.433 6.55-11.725.815-2.632 1.265-5.807-.143-8.315-1.095-1.95-2.936-3.336-5.238-3.372-2.95-.046-5.322 1.768-7.287 3.788-1.965 2.02-3.55 4.337-4.98 6.758-1.966 3.336-3.733 6.823-5.455 10.292-2.002 4.032-3.667 8.23-5.477 12.35-1.352 3.08-2.673 6.17-3.943 9.286-1.375 3.372-2.59 6.794-3.8 10.226-.573 1.62-.992 3.713-2.092 5.065-.905 1.112-1.815 2.222-2.738 3.32-4.358 5.182-8.795 10.424-13.513 15.282-3.938 4.158-8.014 7.947-13.21 10.47-2.39 1.16-5.005 2.08-7.693 1.618-1.317-.227-2.434-.973-3.255-2.014-.445-.565-1.938-3.063-1.194-3.554 3.913-2.57 7.955-4.865 11.65-7.756 3.873-3.025 7.46-6.338 10.89-9.873 1.248-1.29 2.265-2.84 3.288-4.31.922-1.323 1.71-2.46 1.998-4.108.494-2.833-.613-5.824-2.912-7.563-2.06-1.558-4.377-1.792-6.855-1.454-5.602.765-10.44 5.24-13.882 9.458-1.93 2.365-3.702 4.928-5.166 7.608-1.37 2.506-2.204 5.205-2.98 7.94-.368 1.302-.725 2.614-1.032 3.933-.16.683-.307 1.368-.404 2.062-.05.342-.085.686-.11 1.03-.05.646-.037.704-.59 1.044-2.56 1.568-5.194 3.035-7.956 4.22-5.277 2.253-10.928 3.333-16.624 3.825-8.704.75-17.494.558-26.22.558h-31.942c-7.967 0-15.933-.145-23.9-.25-1.378-.018-2.505 1.633-2.19 2.986.256 1.1 1.388 1.945 2.397 1.96 2.403.028 4.804.06 7.206.09 3.993.05 7.99.145 11.982.145h32.13c6.02 0 12.04.026 18.058-.054 10.383-.137 21.083-.502 30.78-4.62 2.58-1.095 5.09-2.42 7.52-3.845.65 2.298 2.178 4.405 4.078 5.833 2.19 1.62 4.84 2.14 7.52 2.023 5.06-.217 10.09-3.143 14.076-6.07 6.142-4.512 11.055-10.654 16.056-16.354-.438 2.188-1.206 4.312-1.59 6.536-.5 2.885-.716 5.768-.033 8.64.582 2.45 2.32 5.024 4.687 6.06 2.493 1.09 5.64.19 7.955-.953 3.948-1.95 6.95-5.363 9.98-8.47 2.446-2.507 4.868-5.036 7.273-7.584 1.147-1.215 2.277-2.444 3.392-3.69-1.303 4.478-2.59 9.242-1.564 13.878.475 2.076 1.29 4.234 2.828 5.652 1.864 1.72 4.55 1.998 6.94 1.428 5.67-1.354 10.01-6.44 13.85-10.486 2.346-2.475 4.713-4.924 7.087-7.372 1.917-1.977 3.684-4.07 5.457-6.17-.767 1.652-1.557 3.307-2.3 4.97-.84 1.877-1.1 4.126-1.158 6.17-.083 2.952.583 5.927 2.377 8.317 3.344 4.455 9.357 5.92 14.606 6.523 4.638.533 9.257.27 13.907.3 6.144.036 12.286.087 18.43.073 5.862-.014 11.725-.057 17.586.033 3.637.057 7.272.14 10.91.21.563.01 1.127.02 1.69.032.79.014 1.486.264 2.294.13 1.155-.187 2.28-.216 3.46-.26 3.572-.126 7.07-.063 10.65.032 4.447.117 8.904-.006 13.353-.027 4.512-.023 8.928-.182 13.36-1.12 4.558-.966 8.968-2.56 13.116-4.675 5.687-2.898 10.84-6.748 15.5-11.096 2.06-1.922 4.024-3.942 5.923-6.023.384-.422 4.778-5.224 4.685-5.327.123.135-.597 1.353-.67 1.55-.326.858-.65 1.717-.985 2.572-1.015 2.6-2.107 5.174-3.32 7.69-1.556 3.332-2.854 6.77-4.202 10.19-.476 1.204-1.11 2.335-.846 3.68.494 2.51 3.74 2.415 4.973.52 1.356-2.08 2.192-4.565 3.223-6.82 1.272-2.784 2.585-5.554 4.024-8.257 2.1-3.944 4.805-7.326 7.7-10.698 2.538-2.954 5.006-6.007 7.922-8.6 1.896-1.688 4.146-3.124 6.427-4.213 1.947-.93 4.31-1.855 5.942.23.656.838.604 2.188.58 3.18-.067 1.435-.604 2.723-1.186 4.02-.644 1.43-1.214 2.893-1.81 4.344-1.856 4.51-4.054 8.876-5.657 13.486-.905 2.602-1.85 5.375-1.555 8.168.235 2.232 1.086 4.555 3.188 5.566 4.966 2.545 10.293-2.96 13.545-6.047 3.985-3.78 7.66-7.98 10.988-12.348.93-1.22 2.014-2.365 2.885-3.624-1.245 3.006-2.313 6.07-3.072 9.237-.772 3.23-1.456 6.877.52 9.828 1.792 2.672 5.055 3.377 8.074 2.844 1.612-.286 3.132-.97 4.656-1.556h-.578c3.913-2.316 7.258-5.77 10.302-9.107 2.12-2.326 4.253-4.68 6.25-7.113-1.477 3.673-2.58 7.457-2.925 11.414-.15 1.88.103 3.8 1.482 5.2 1.45 1.476 3.54 1.896 5.52 1.487 7.34-1.512 11.948-7.69 16.804-12.79-.11 3.257.04 6.378 2.064 9.1 1.803 2.423 4.447 3.5 7.407 3.663 2.882.158 5.585-.498 8.072-1.922 2.585-1.48 5.205-3.21 7.332-5.307-.407.94-.574 1.856-1.46 2.4-1.128.694-2.257 1.388-3.368 2.11-1.063.69-2.132 1.377-3.2 2.06-2.563 1.62-5.034 3.354-7.374 5.284-2.38 1.96-4.457 4.2-6.517 6.486-4.002 4.445-7.334 9.54-9.302 15.227-1.855 5.367-2.61 12.016 1.924 16.322 2.11 2 5.18 2.294 7.8 1.116 2.55-1.146 4.194-3.697 5.75-5.902 3.17-4.496 5.483-9.71 7.896-14.637 2.542-5.195 5.026-10.436 7.34-15.734.998-2.303 1.958-4.623 2.904-6.947.306-.752.603-1.506.908-2.256 1.285-.814 2.55-1.66 3.8-2.527 3.248-2.256 6.322-4.615 9.144-7.395 1.127-1.11 2.27-2.203 3.41-3.303-.226 2.762.217 5.795 1.244 8.375 1.013 2.54 2.956 4.31 5.518 5.23 5.623 2.046 11.144-.524 15.668-3.845 1.165-.855 2.273-1.78 3.328-2.77.24-.23.47-.465.7-.7.278-.29.323-.59.677-.282.575.498 1.17.97 1.783 1.422 2.4 1.768 5.014 3.246 7.746 4.434 5.125 2.23 10.603 3.245 16.14 3.782 7.81.758 15.603.354 23.433.354h53.406c.424 0 .837.014 1.25-.123 2.517-.836 1.892-4.692-.766-4.692 0 0 1.33 0 0 0zM501.448 59.983c3.414-8 6.9-16.075 11.148-23.677 1.27-2.27 2.564-4.847 4.553-6.583.75-.657 1.702-1.4 2.73-1.507 1.204-.125 1.6 1.17 1.723 2.116.34 2.633-1.355 5.393-2.61 7.58-1.206 2.1-2.535 4.14-3.897 6.126-4.262 6.215-9.258 11.787-14.27 17.395.206-.483.416-.965.622-1.448 0 0-.23.538 0 0zM307.95 62.78c1.733-4.49 3.557-8.872 5.72-13.17 1.41-2.8 2.783-5.624 4.152-8.44 1.16-2.388 2.527-4.637 3.975-6.856 1.396-2.138 3.134-4.882 5.57-5.97 2.443-1.092 1.8 2.86 1.476 4.076-.742 2.78-2.186 5.35-3.696 7.777-3.09 4.97-6.768 9.537-10.12 14.327-2.665 3.81-5.475 7.536-8.243 11.273l1.166-3.018c.604-1.565 0 0 0 0zm-31.88-.285c3.454-8.276 7.062-16.508 11.378-24.375 1.31-2.385 2.692-4.734 4.46-6.812.797-.936 2.878-3.53 4.402-3.166 2.076.495.493 4.92.005 6.082-1.063 2.61-2.644 4.998-4.208 7.33-5.632 8.394-11.455 16.625-17.587 24.662l1.55-3.72c.314-.756 0 0 0 0zm-53.91 36.937c.418-1.58.84-3.156 1.33-4.715.887-2.818 2.232-5.3 3.878-7.746 1.562-2.32 3.287-4.57 5.352-6.47 1.992-1.866 4.462-3.982 7.21-4.518 1.104-.215 2.377-.418 3.366.227 1.248.813 1.38 2.4.754 3.654-1.227 2.46-3.128 4.66-5.056 6.578-3.55 3.532-7.27 6.91-11.406 9.73-1.802 1.23-3.657 2.34-5.49 3.513l.06-.253s-.02.09 0 0zm189.16 6.55c-1.936 2.057-4.155 3.848-6.376 5.582-.656.514-1.68 1.61-2.57 1.586-.396-.012-.86-.408-1.177-.61-.65-.42-1.292-.853-1.93-1.288-4.38-2.988-7.836-7.043-11.03-11.234-1.504-2.005-2.654-4.184-3.714-6.45-1.153-2.466-2.04-4.87-2.173-7.617-.108-2.228-.06-4.842 1.42-6.64 1.492-1.71 3.65-3.06 5.893-3.503 2.53-.5 5.282-.066 7.373 1.513.768.58 1.397 1.3 1.88 2.13.46.79.868 1.673 1.623 2.23.86.64 2.15.72 3.11.256.94-.453 1.444-1.4 1.955-2.256.56-.94 1.166-1.88 2.075-2.525 1.227-.87 2.74-1.136 4.198-1.336 5.102-.702 9.74 2.45 10.25 7.714.253 2.6-.355 5.14-1.21 7.58-.905 2.597-2.078 5.128-3.647 7.396-1.8 2.603-3.822 5.13-5.95 7.472-.35.372 0 0 0 0zm189.735 16.22c-2.347 5.343-4.844 10.628-7.41 15.866-2.418 4.936-4.75 10.074-7.98 14.537-.763 1.035-1.525 2.27-2.6 3.014-.58.403-1.683.724-2.298.233-1.978-1.576-2.256-4.594-1.882-6.914.49-3.032 1.666-5.907 3.094-8.608s2.935-5.182 4.94-7.5c2.498-2.89 5.07-5.693 8.063-8.08 2.256-1.8 4.64-3.38 7.086-4.906-.335.787-.672 1.574-1.015 2.357-.88 2.002.335-.764 0 0zm10.92-28.556c-2.26 3.268-4.56 6.473-7.088 9.54-1.74 2.137-3.686 3.86-5.965 5.406-1.94 1.316-3.936 2.682-6.343 2.85-2.598.18-4.872-.45-5.647-3.2-.31-1.1-.237-2.34-.2-3.468.045-1.393.126-2.826.538-4.166 1.17-3.793 3.593-6.915 6.084-9.896 1.65-1.976 3.198-4.05 5.146-5.752 1.973-1.722 4.16-3.296 6.317-4.78 2.41-1.657 5.066-3.094 7.856-3.996 2.845-.92 5.94-1.06 8.908-.893-.997 2.86-2.51 5.565-3.86 8.272-1.737 3.477-3.548 6.873-5.746 10.084 0 0 .864-1.262 0 0zm33.335 2.098c.496 2.627 1.335 5.147 3.006 7.264.223.28.453.557.688.828.32.336-.05.45-.316.725-.496.515-1.023.995-1.565 1.462-1.16.996-2.394 1.902-3.708 2.69-2.405 1.427-4.778 2.655-7.65 2.206-1.105-.172-2.383-.594-3.122-1.484-.807-.97-1.065-2.404-1.285-3.607-.49-2.684-.16-5.34.512-7.967.54-2.105 1.122-4.28 2.093-6.057 2.774-5.137 6.2-10.056 10.816-13.69 1.882-1.48 3.732-2.723 6.03-3.462-2.253 2.672-3.754 6.342-4.6 9.703-.905 3.596-1.592 7.71-.9 11.39.28 1.48-.22-1.173 0 0zm7.35 4.377c-2.97-3.583-2.565-8.174-1.85-12.458.396-2.363 1.148-4.575 2.184-6.735.964-2.01 2.08-3.847 4.195-4.763.567-.246 1.15-.455 1.733-.66.396.29.72.662.984 1.073.55.852.677 1.817.726 2.81.128 2.6-.367 5.036-1.135 7.51-1.475 4.75-3.924 9.196-6.84 13.224-.668-.806.592-.815 0 0z"></path></svg>